<svg width="17" height="16" viewBox="0 0 17 16" fill="none" xmlns="http://www.w3.org/2000/svg"><path fill-rule="evenodd" clip-rule="evenodd" d="M3.71269 1.07463C3.71269 0.481607 4.19429 0 4.78732 0C5.15571 0 5.48097 0.185113 5.67505 0.469027C5.33721 0.591226 5.02632 0.788901 4.76395 1.05127C4.50159 1.31364 4.30391 1.62452 4.18171 1.96237C3.89778 1.76829 3.71269 1.44302 3.71269 1.07463ZM0 15.1473H11.0626L10.2988 14.3728H0.734989C0.458245 14.3728 0.201268 14.2757 0 14.1158V15.1473ZM4.48002 2.81598C4.48002 3.94812 5.39833 4.86461 6.52865 4.86461C7.65899 4.86461 8.57727 3.94632 8.57727 2.81598C8.57727 1.68384 7.65899 0.767354 6.52865 0.767354C6.28786 0.767354 6.05782 0.808686 5.84397 0.884162C5.26353 1.09082 4.80169 1.55086 4.59683 2.13131C4.52135 2.34695 4.48002 2.57696 4.48002 2.81598ZM2.07037 8.82174C2.49792 7.74218 3.05385 6.33848 3.36765 5.64271C3.37947 5.61671 3.39102 5.59022 3.40264 5.56356C3.47055 5.40776 3.54097 5.2462 3.68215 5.14494C3.82592 5.04611 4.01101 5.00298 4.17993 4.9886C4.69389 4.94368 5.24915 5.05689 5.74875 5.18987C5.7811 5.19706 5.81344 5.20604 5.84399 5.21503C5.87273 5.22222 5.9015 5.2312 5.92845 5.24019C6.04345 5.27792 6.15308 5.33004 6.23753 5.41091L8.23943 7.31038C8.32207 7.38765 8.41913 7.44875 8.52516 7.49008L10.7966 8.35805C11.1794 8.50361 11.3699 8.93132 11.2243 9.31228C11.1129 9.60699 10.8326 9.7885 10.5343 9.7885C10.4462 9.7885 10.3564 9.77236 10.2701 9.73999L7.70034 8.75881C7.61048 8.72465 7.526 8.67074 7.45594 8.60426L6.51607 7.7129C6.5171 7.71807 6.51873 7.72265 6.52027 7.72698L6.52028 7.72699C6.52141 7.73018 6.52249 7.73323 6.52326 7.73628C6.68412 8.29983 6.30619 8.62941 5.92694 8.96013C5.71726 9.14299 5.50717 9.32619 5.38753 9.54949C5.2905 9.7274 5.20243 9.91609 5.12336 10.1101H1.55444C1.65392 9.87326 1.84418 9.39286 2.07037 8.82174ZM0.734989 13.9235H10.4857L11.4202 14.8705C11.5082 14.9604 11.6143 15.0304 11.7275 15.0772C11.8389 15.1221 11.9575 15.1473 12.0797 15.1473H16.062C16.5795 15.1473 16.9964 14.7232 16.9893 14.2056C16.9803 13.697 16.5562 13.2945 16.0476 13.2945H12.4679L10.0347 10.8254C9.84598 10.6331 9.73457 10.554 9.39672 10.554C8.81448 10.554 0.734989 10.5594 0.734989 10.5594C0.328858 10.5594 0 10.8883 0 11.2944V12.998V13.1885C0 13.5946 0.328858 13.9235 0.734989 13.9235ZM13.5263 8.40837C14.6998 8.40837 15.6522 9.3608 15.6522 10.5342C15.6522 11.7095 14.6998 12.6602 13.5263 12.6602C12.3529 12.6602 11.4004 11.7077 11.4004 10.5342C11.4004 9.3608 12.3529 8.40837 13.5263 8.40837Z" fill="#ff8917"></path></svg>