<svg width="14" height="14" viewBox="0 0 14 14" fill="none" xmlns="http://www.w3.org/2000/svg"><path fill-rule="evenodd" clip-rule="evenodd" d="M12.3822 2.34111C12.2267 1.88222 11.7911 1.55556 11.2778 1.55556H9.33333V0H4.66667V1.55556H2.72222C2.20889 1.55556 1.78111 1.88222 1.61778 2.34111L0 7V13.2222C0 13.65 0.35 14 0.777778 14H1.55556C1.98333 14 2.33333 13.65 2.33333 13.2222V12.4444H11.6667V13.2222C11.6667 13.65 12.0167 14 12.4444 14H13.2222C13.65 14 14 13.65 14 13.2222V7L12.3822 2.34111ZM2.72222 10.1111C2.07667 10.1111 1.55556 9.59 1.55556 8.94444C1.55556 8.29889 2.07667 7.77778 2.72222 7.77778C3.36778 7.77778 3.88889 8.29889 3.88889 8.94444C3.88889 9.59 3.36778 10.1111 2.72222 10.1111ZM11.2778 10.1111C10.6322 10.1111 10.1111 9.59 10.1111 8.94444C10.1111 8.29889 10.6322 7.77778 11.2778 7.77778C11.9233 7.77778 12.4444 8.29889 12.4444 8.94444C12.4444 9.59 11.9233 10.1111 11.2778 10.1111ZM1.55556 6.22222L2.72222 2.72222H11.2778L12.4444 6.22222H1.55556Z" fill="#ff8917"></path></svg>