<svg width="20" height="14" viewBox="0 0 20 14" fill="none" xmlns="http://www.w3.org/2000/svg"><path d="M9.71429 13.8767C9.96094 13.8767 11.2891 12.5485 11.2891 12.2924C11.2891 11.8276 10.0748 11.5714 9.71429 11.5714C9.35379 11.5714 8.13951 11.8276 8.13951 12.2924C8.13951 12.5485 9.46763 13.8767 9.71429 13.8767ZM12.2757 11.3058C12.5033 11.3058 13.8789 9.93973 13.8789 9.71205C13.8789 9.62667 13.841 9.55078 13.784 9.49386C12.769 8.48828 11.1183 7.92857 9.71429 7.92857C8.31027 7.92857 6.6596 8.48828 5.64453 9.49386C5.58761 9.55078 5.54967 9.62667 5.54967 9.71205C5.54967 9.93973 6.92522 11.3058 7.1529 11.3058C7.2952 11.3058 8.31027 10.3571 9.71429 10.3571C11.1088 10.3571 12.1429 11.3058 12.2757 11.3058ZM14.8655 8.72545C15.0837 8.72545 16.4498 7.35937 16.4498 7.1317C16.4498 7.0558 16.4118 6.97991 16.3549 6.92299C14.6568 5.22489 12.0954 4.28571 9.71429 4.28571C7.33315 4.28571 4.77176 5.22489 3.07366 6.92299C3.01674 6.97991 2.97879 7.0558 2.97879 7.1317C2.97879 7.35937 4.34487 8.72545 4.56306 8.72545C4.66741 8.72545 6.84933 6.71429 9.71429 6.71429C11.7634 6.71429 13.082 7.43527 14.6473 8.64955C14.7042 8.6875 14.7896 8.72545 14.8655 8.72545ZM17.4364 6.15458C17.6546 6.15458 19.0301 4.7885 19.0301 4.56083C19.0301 4.47545 18.9922 4.39955 18.9353 4.34263C16.5352 1.9615 13.0725 0.642856 9.71429 0.642856C6.35603 0.642856 2.89342 1.9615 0.493304 4.34263C0.436384 4.39955 0.398438 4.47545 0.398438 4.56083C0.398438 4.7885 1.774 6.15458 1.99219 6.15458C2.06808 6.15458 2.14397 6.11663 2.20089 6.0692C4.3923 4.14342 6.75446 3.07143 9.71429 3.07143C12.6741 3.07143 15.0363 4.14342 17.2277 6.0692C17.2846 6.11663 17.3605 6.15458 17.4364 6.15458Z" fill="#ff8917"></path></svg>